{"title":"Avicii - Addicted To You [Music Video] 1080p [Sbyky]","uid":10249866,"size":61322215,"categoryP":"video","categoryS":"music_videos","magnet":"?xt=urn:btih:4bbeaec4a1d16a5d97bfe9eada73c52368069d19&amp;dn=Avicii+-+Addicted+To+You+%5BMusic+Video%5D+1080p+%5BSbyky%5D&amp;tr=udp%3A%2F%2Ftracker.openbittorrent.com%3A80&amp;tr=udp%3A%2F%2Fopen.demonii.com%3A1337&amp;tr=udp%3A%2F%2Ftracker.coppersurfer.tk%3A6969&amp;tr=udp%3A%2F%2Fexodus.desync.com%3A6969","seeders":6,"leechers":0,"uploader":"Sbyky","files":1,"time":1401335552,"description":"\n\nGeneral\nComplete name                            : Avicii - Addicted To You [Music Video] 1080p [Sbyky].MP4\nFormat                                   : MPEG-4\nFormat profile                           : Base Media\nCodec ID                                 : isom\nFile size                                : 58.5 MiB\nDuration                                 : 3mn 23s\nOverall bit rate mode                    : Variable\nOverall bit rate                         : 2 413 Kbps\nEncoded date                             : UTC 2014-03-07 05:05:16\nTagged date                              : UTC 2014-03-07 05:05:16\n\nVideo\nID                                       : 1\nFormat                                   : AVC\nFormat/Info                              : Advanced Video Codec\nFormat profile                           : &lt;a class=&quot;__cf_email__&quot; href=&quot;/cdn-cgi/l/email-protection&quot; data-cfemail=&quot;b7ffded0dff7fb839987&quot;&gt;[email&amp;#160;protected]&lt;/a&gt;&lt;script data-cfhash='f9e31' type=&quot;text/javascript&quot;&gt;\n/* &lt;![CDATA[ */!function(){try{var t=&quot;currentScript&quot;in document?document.currentScript:function(){for(var t=document.getElementsByTagName(&quot;script&quot;),e=t.length;e--;)if(t[e].getAttribute(&quot;data-cfhash&quot;))return t[e]}();if(t&amp;&amp;t.previousSibling){var e,r,n,i,c=t.previousSibling,a=c.getAttribute(&quot;data-cfemail&quot;);if(a){for(e=&quot;&quot;,r=parseInt(a.substr(0,2),16),n=2;a.length-n;n+=2)i=parseInt(a.substr(n,2),16)^r,e+=String.fromCharCode(i);e=document.createTextNode(e),c.parentNode.replaceChild(e,c)}t.parentNode.removeChild(t);}}catch(u){}}()/* ]]&gt; */&lt;/script&gt;\nFormat settings, CABAC                   : Yes\nFormat settings, ReFrames                : 3 frames\nCodec ID                                 : avc1\nCodec ID/Info                            : Advanced Video Coding\nDuration                                 : 3mn 23s\nDuration_LastFrame                       : -39ms\nBit rate                                 : 2 285 Kbps\nWidth                                    : 1 920 pixels\nHeight                                   : 1 080 pixels\nDisplay aspect ratio                     : 16:9\nFrame rate mode                          : Constant\nFrame rate                               : 25.000 fps\nColor space                              : YUV\nChroma subsampling                       : 4:2:0\nBit depth                                : 8 bits\nScan type                                : Progressive\nBits/(Pixel*Frame)                       : 0.044\nStream size                              : 55.4 MiB (95%)\nEncoded date                             : UTC 2014-03-07 05:05:16\nTagged date                              : UTC 2014-03-07 05:05:16\n\nAudio\nID                                       : 2\nFormat                                   : AAC\nFormat/Info                              : Advanced Audio Codec\nFormat profile                           : LC\nCodec ID                                 : 40\nDuration                                 : 3mn 23s\nBit rate mode                            : Variable\nBit rate                                 : 126 Kbps\nChannel(s)                               : 2 channels\nChannel positions                        : Front: L R\nSampling rate                            : 44.1 KHz\nCompression mode                         : Lossy\nStream size                              : 3.04 MiB (5%)\nEncoded date                             : UTC 2014-03-07 05:04:28\nTagged date                              : UTC 2014-03-07 05:04:28\n\nShared By Sbyky\n","torrent":{"xt":"urn:btih:4bbeaec4a1d16a5d97bfe9eada73c52368069d19","amp;dn":"Avicii+-+Addicted+To+You+%5BMusic+Video%5D+1080p+%5BSbyky%5D","amp;tr":["udp%3A%2F%2Ftracker.openbittorrent.com%3A80","udp%3A%2F%2Fopen.demonii.com%3A1337","udp%3A%2F%2Ftracker.coppersurfer.tk%3A6969","udp%3A%2F%2Fexodus.desync.com%3A6969"],"infoHash":"4bbeaec4a1d16a5d97bfe9eada73c52368069d19","infoHashBuffer":{"type":"Buffer","data":[75,190,174,196,161,209,106,93,151,191,233,234,218,115,197,35,104,6,157,25]},"announce":[],"urlList":[]}}